<svg xmlns="http://www.w3.org/2000/svg" viewBox="0 0 220 40" role="img" aria-label="Espeezy Studios">
  <defs>
    <linearGradient id="studios-wordmark-grad" x1="0%" y1="0%" x2="100%" y2="100%">
      <stop offset="0%" stop-color="#818cf8"/>
      <stop offset="55%" stop-color="#22d3ee"/>
      <stop offset="100%" stop-color="#818cf8"/>
    </linearGradient>
    <linearGradient id="studios-wordmark-soft" x1="0%" y1="100%" x2="100%" y2="0%">
      <stop offset="0%" stop-color="#818cf8" stop-opacity="0.15"/>
      <stop offset="100%" stop-color="#22d3ee" stop-opacity="0.35"/>
    </linearGradient>
  </defs>
  <g transform="translate(2 4)">
    <circle cx="16" cy="16" r="15" fill="url(#studios-wordmark-soft)"/>
    <circle cx="16" cy="16" r="14.25" fill="none" stroke="url(#studios-wordmark-grad)" stroke-width="1.25"/>
    <path d="M16 6.5 L19.2 14.8 L16 16 Z" fill="url(#studios-wordmark-grad)" opacity="0.95"/>
    <path d="M25.5 16 L17.2 19.2 L16 16 Z" fill="url(#studios-wordmark-grad)" opacity="0.82"/>
    <path d="M16 25.5 L12.8 17.2 L16 16 Z" fill="url(#studios-wordmark-grad)" opacity="0.88"/>
    <path d="M6.5 16 L14.8 12.8 L16 16 Z" fill="url(#studios-wordmark-grad)" opacity="0.76"/>
    <path d="M22.8 9.2 L18.8 17.2 L16 16 Z" fill="url(#studios-wordmark-grad)" opacity="0.68"/>
    <path d="M22.8 22.8 L14.8 18.8 L16 16 Z" fill="url(#studios-wordmark-grad)" opacity="0.72"/>
    <path d="M9.2 22.8 L13.2 14.8 L16 16 Z" fill="url(#studios-wordmark-grad)" opacity="0.64"/>
    <path d="M9.2 9.2 L17.2 13.2 L16 16 Z" fill="url(#studios-wordmark-grad)" opacity="0.58"/>
    <circle cx="16" cy="16" r="2.35" fill="#1a2336" stroke="url(#studios-wordmark-grad)" stroke-width="0.75"/>
    <circle cx="16" cy="16" r="0.85" fill="url(#studios-wordmark-grad)"/>
  </g>
  <text x="44" y="13" fill="#64748b" font-family="Segoe UI, system-ui, sans-serif" font-size="8.5" font-weight="700" letter-spacing="2.2">ESPEEZY</text>
  <text x="44" y="30" fill="#f1f5f9" font-family="Segoe UI, system-ui, sans-serif" font-size="17" font-weight="800" letter-spacing="1.1">STUDIOS</text>
  <rect x="44" y="34" width="92" height="1.5" fill="url(#studios-wordmark-grad)" rx="0.75"/>
</svg>
